# xmcd
#
# Track frame offsets:
#  150
#  17271
#  33015
#  60802
#  77263
#  99383
#  119363
#  134350
#  152867
#  174313
#  185808
#  205801
#  217035
#  240498
#
# Disc length: 3361 seconds
#
# Revision: 0
# Processed by: cddbd v1.5.1PL2 Copyright (c) Steve Scherf et al.
# Submitted via: Collectorz.com_Music_Collector 6.9
#
DISCID=a70d1f0e
DTITLE=Winton, Andrew - The Decompression Chamber
DYEAR=1900
DGENRE=
TTITLE0=Number's Down
TTITLE1=Ain't Gonna Get It
TTITLE2=A Perfect Time
TTITLE3=Hyperactivity
TTITLE4=Too Hard Again
TTITLE5=Lucky Boy
TTITLE6=Hard Time Killing Floor Blues
TTITLE7=The Nullabor Mountain Boys
TTITLE8=Pretend
TTITLE9=Baby Please Don't Go
TTITLE10=Moving On
TTITLE11=Let You In
TTITLE12=Black Is The Clour of My True Love's Hair
TTITLE13=The Decompression Chamber
EXTD=
EXTT0=
EXTT1=
EXTT2=
EXTT3=
EXTT4=
EXTT5=
EXTT6=
EXTT7=
EXTT8=
EXTT9=
EXTT10=
EXTT11=
EXTT12=
EXTT13=
PLAYORDER=
